# xmcd
#
# Track frame offsets:
#	150
#	17072
#	35750
#
# Disc length: 708 seconds
#
# Revision: 0
# Processed by: cddbd v1.5PL3 Copyright (c) Steve Scherf et al.
# Submitted via: audiograbber 1.83.01
#
DISCID=1e02c203
DTITLE=Ben Harper - With My Own Two Hands (EP)
DYEAR=2003
DGENRE=Rock
TTITLE0=With My Own Two Hands (Radio Edit)
TTITLE1=Bring The Funk
TTITLE2=With My Own Two Hands Remix)
EXTD=
EXTT0=
EXTT1=
EXTT2=
PLAYORDER=
